# xmcd CD database file
#
# Track frame offsets:
#	150
#	18745
#	44988
#
# Disc length: 846 seconds
#
# Revision: 6
# Processed by: cddbd v1.5.2PL0 Copyright (c) Steve Scherf et al.
# Submitted via: CDex 1.70beta2
#
DISCID=28034c03
DTITLE=奥田民生 - 拳を天につき上げろ
DYEAR=2012
DGENRE=Rock
TTITLE0=拳を天につき上げろ
TTITLE1=EBm
TTITLE2=拳を天につき上げろ Instrumental
EXTD=YEAR: 2012
EXTT0=
EXTT1=
EXTT2=
PLAYORDER=
